<?xml version="1.0" encoding="utf-8"?>
<!-- Generator: Adobe Illustrator 16.0.3, SVG Export Plug-In . SVG Version: 6.00 Build 0)  -->
<!DOCTYPE svg PUBLIC "-//W3C//DTD SVG 1.1//EN" "http://www.w3.org/Graphics/SVG/1.1/DTD/svg11.dtd">
<svg version="1.1" id="Layer_1" xmlns="http://www.w3.org/2000/svg" xmlns:xlink="http://www.w3.org/1999/xlink" x="0px" y="0px"
	 width="50px" height="50px" viewBox="0 0 50 50" enable-background="new 0 0 50 50" xml:space="preserve">
<g>
	<path fill="#FFFFFF" d="M25,50h25V25C50,38.785,38.785,50,25,50z"/>
	<path fill="#FFFFFF" d="M17.192,17.62h-0.219v2.161h0.219c0.737,0,1.563-0.138,1.562-1.081
		C18.754,17.758,17.928,17.62,17.192,17.62z"/>
	<path fill="#FFFFFF" d="M25,0c13.785,0,25,11.215,25,25V0H25z"/>
	<path fill="#FFFFFF" d="M0,25v25h25C11.215,50,0,38.785,0,25z"/>
	<path fill="#FFFFFF" d="M25,0H0v25C0,11.215,11.215,0,25,0z"/>
	<path fill="#FFFFFF" d="M25,2.001C12.318,2.001,2,12.318,2,25c0,12.682,10.318,23,23,23c12.682,0,23-10.318,23-23
		C48,12.318,37.682,2.001,25,2.001z M19.125,24.564l-2.128-3.334h-0.023v3.334h-2.253v-8.67h3.369c1.713,0,3.012,0.818,3.012,2.668
		c0,1.195-0.666,2.23-1.897,2.449l2.725,3.553H19.125z M35.091,33.936c-0.116,0.107-0.276,0.17-0.444,0.17
		c-0.273,0-0.524-0.045-0.763-0.133c-0.245-0.091-0.468-0.226-0.657-0.402c-0.272-0.25-0.752-0.248-1.023-0.002
		c-0.189,0.175-0.415,0.309-0.66,0.404c-0.219,0.077-0.453,0.115-0.686,0.125c-0.232-0.01-0.463-0.048-0.685-0.125
		c-0.241-0.093-0.467-0.228-0.659-0.404c-0.267-0.246-0.748-0.248-1.021,0.002c-0.193,0.174-0.414,0.309-0.658,0.402
		c-0.241,0.088-0.491,0.133-0.761,0.133c-0.169,0-0.329-0.063-0.446-0.17c-0.124-0.111-0.188-0.256-0.188-0.412
		c0-0.307,0.256-0.559,0.582-0.58c0.215-0.033,0.422-0.061,0.568-0.196c0.749-0.688,2.062-0.695,2.824-0.003
		c0.006,0.008,0.016,0.014,0.021,0.02c0.113,0.098,0.27,0.145,0.422,0.156c0.156-0.01,0.31-0.059,0.425-0.156
		c0.006-0.006,0.014-0.012,0.018-0.02c0.765-0.692,2.078-0.686,2.827,0.003c0.146,0.134,0.355,0.163,0.566,0.196
		c0.328,0.024,0.586,0.277,0.586,0.58C35.279,33.68,35.209,33.824,35.091,33.936z M35.091,31.129
		c-0.116,0.111-0.276,0.171-0.444,0.171c-0.273,0-0.524-0.045-0.763-0.134c-0.245-0.089-0.468-0.227-0.657-0.4
		c-0.272-0.252-0.752-0.248-1.023-0.002c-0.189,0.174-0.415,0.311-0.66,0.4c-0.219,0.082-0.453,0.121-0.686,0.129
		c-0.232-0.008-0.463-0.047-0.685-0.129c-0.241-0.088-0.467-0.225-0.659-0.4c-0.267-0.246-0.748-0.25-1.021,0.002
		c-0.193,0.174-0.414,0.309-0.658,0.4c-0.241,0.089-0.491,0.134-0.761,0.134c-0.169,0-0.329-0.06-0.446-0.171
		c-0.124-0.109-0.188-0.256-0.188-0.41c0-0.305,0.256-0.557,0.582-0.582c0.215-0.033,0.422-0.057,0.568-0.197
		c0.749-0.687,2.062-0.69,2.824,0c0.006,0.004,0.016,0.015,0.021,0.021c0.113,0.097,0.27,0.144,0.422,0.156
		c0.156-0.011,0.31-0.056,0.425-0.156c0.006-0.006,0.014-0.017,0.018-0.021c0.765-0.69,2.078-0.687,2.827,0
		c0.146,0.138,0.355,0.164,0.566,0.197c0.328,0.025,0.586,0.277,0.586,0.582C35.279,30.873,35.209,31.02,35.091,31.129z
		 M35.091,28.098c-0.116,0.109-0.276,0.172-0.444,0.172c-0.273-0.002-0.524-0.047-0.763-0.138c-0.245-0.087-0.468-0.223-0.657-0.397
		c-0.272-0.252-0.752-0.248-1.023-0.002c-0.189,0.174-0.415,0.307-0.66,0.399c-0.219,0.081-0.453,0.118-0.686,0.126
		c-0.232-0.008-0.463-0.045-0.685-0.126c-0.241-0.09-0.467-0.223-0.659-0.399c-0.267-0.246-0.748-0.25-1.021,0.002
		c-0.193,0.172-0.414,0.308-0.658,0.397c-0.241,0.091-0.491,0.136-0.761,0.138c-0.169,0-0.329-0.064-0.446-0.172
		c-0.124-0.111-0.188-0.26-0.188-0.41c0-0.309,0.256-0.561,0.582-0.582c0.215-0.033,0.422-0.061,0.568-0.196
		c0.749-0.689,2.062-0.695,2.824-0.003c0.006,0.008,0.016,0.014,0.021,0.021c0.113,0.099,0.27,0.144,0.422,0.155
		c0.156-0.012,0.31-0.057,0.425-0.155c0.006-0.007,0.014-0.013,0.018-0.021c0.765-0.692,2.078-0.686,2.827,0.003
		c0.146,0.134,0.355,0.163,0.566,0.196c0.328,0.024,0.586,0.276,0.586,0.582C35.279,27.838,35.209,27.986,35.091,28.098z"/>
</g>
</svg>
