<?xml version="1.0" encoding="utf-8"?>
<!-- Generator: Adobe Illustrator 21.0.0, SVG Export Plug-In . SVG Version: 6.00 Build 0)  -->
<svg version="1.1" id="Layer_1" xmlns="http://www.w3.org/2000/svg" xmlns:xlink="http://www.w3.org/1999/xlink" x="0px" y="0px"
	 viewBox="0 0 400 400" style="enable-background:new 0 0 400 400;" xml:space="preserve">
<style type="text/css">
	.st0{enable-background:new    ;}
	.st1{fill:#FFFFFF;}
	.st2{fill:none;stroke:#FFFFFF;stroke-miterlimit:10;}
	.st3{font-family:'Roboto-Thin';}
	.st4{font-size:114px;}
	.st5{font-size:141.9607px;}
</style>
<rect x="-256" y="8.7" style="fill:none;" width="183.9" height="67.6"/>
<text transform="matrix(1 0 0 1 -256 60)" class="st1 st3" style="font-size:60px;">THE</text>
<path d="M9,382c5-57,19-116,19-116l25-18l9-24v-24l9-17l17-72l23-34.7L127,27h21h13l12,9l18-9h16l14,9l9,6.5L249,64l12-21.5L272,27
	h13l21-18.3L321,24v18.5V59l9,23v15v22l6,15l9,23l6,38.3c0,0,9,34.7,10,37.7s0,11,0,11l10,25v54c0,0,2,14,0,17s15,42,15,42H9z"/>
<polyline class="st2" points="34,382 45.5,330 88.5,287.5 113,243.5 113,211.5 113,177 133,143 138.5,95 173,36 179.5,100.5 
	165,167.5 175,253.5 170,302 141.5,364.5 134.5,382 "/>
<polyline class="st2" points="191,27 203.5,100.5 194.5,147.5 229,188 236,239 218,327 225,382 256.5,255 256.5,216 242,170 
	267,82.5 306,8.7 285.5,97 293.5,117.5 275.5,165.5 291,189.5 302.5,252.5 273.5,287 328.2,382 323,282.5 332.5,179.5 330,119 "/>
<line class="st2" x1="113" y1="177" x2="88" y2="111"/>
<line class="st2" x1="203.5" y1="100.5" x2="207" y2="27"/>
<line class="st2" x1="28" y1="266" x2="45.5" y2="330"/>
<line class="st2" x1="134.5" y1="382" x2="88.5" y2="287.5"/>
<line class="st2" x1="175" y1="253.5" x2="229" y2="188"/>
<line class="st2" x1="256.5" y1="216" x2="302.5" y2="252.5"/>
<line class="st2" x1="323" y1="282.5" x2="371" y2="340"/>
<line class="st2" x1="332.5" y1="179.5" x2="361" y2="244"/>
<line class="st2" x1="138.5" y1="95" x2="161" y2="27"/>
<line class="st2" x1="249" y1="64" x2="267" y2="82.5"/>
<text transform="matrix(1 0 0 1 89.5 130.2425)" class="st1 st3 st4">AGAI</text>
<text transform="matrix(1 0 0 1 71.4995 248.9209)" class="st1 st3 st5">NST</text>
<text transform="matrix(1 0 0 1 17.4995 369.9209)" class="st1 st3 st5">EXILE</text>
</svg>
